<svg width="150" height="150" viewBox="0 0 150 150" fill="none" xmlns="http://www.w3.org/2000/svg">
<path d="M26.5626 0H123.437C138.125 0 150 12.1797 150 27.2437V122.756C150 137.82 138.125 150 123.437 150H26.5626C11.8752 150 0 137.82 0 122.756V27.2437C0 12.1797 11.8752 0 26.5626 0Z" fill="#00005B"/>
<path d="M60.2558 91.7433H37.0058L32.2556 106.871C32.1308 107.448 31.6304 107.833 31.0682 107.769H19.3184C18.6308 107.769 18.4436 107.384 18.6308 106.615L38.756 47.4479C38.9432 46.8067 39.131 46.2301 39.3812 45.4609C39.6314 44.115 39.7562 42.7046 39.7562 41.2941C39.6938 40.9735 39.9434 40.6529 40.256 40.5889H56.4434C56.8808 40.5889 57.1934 40.7809 57.2558 41.1015L80.0685 106.486C80.2562 107.191 80.0684 107.512 79.4432 107.512H66.3806C65.9432 107.576 65.5058 107.255 65.3804 106.807L60.2552 91.4221V91.7427L60.2558 91.7433ZM40.631 78.987H56.5058C56.1308 77.6412 55.6311 76.0381 55.0682 74.3716C54.5055 72.6412 53.9432 70.7821 53.3811 68.859C52.7559 66.8719 52.1936 64.9489 51.5684 62.9618C50.9432 60.9747 50.381 59.1156 49.8812 57.2566C49.3814 55.4615 48.944 53.795 48.506 52.2566H48.3812C47.8184 55.0129 47.1314 57.7692 46.256 60.5261C45.3188 63.603 44.381 66.8079 43.3808 70.0135C42.5684 73.2824 41.5682 76.2953 40.631 78.9876V78.987ZM116.881 85.9741H97.0682C97.3185 87.9612 97.943 89.9483 99.0057 91.6793C100.131 93.4098 101.693 94.7563 103.568 95.5255C106.068 96.6153 108.818 97.1919 111.568 97.1279C113.755 97.0639 115.943 96.8713 118.068 96.4227C120.005 96.1661 121.88 95.6535 123.63 94.9483C123.943 94.6916 124.13 94.8203 124.13 95.4609V105.269C124.13 105.525 124.068 105.781 124.005 106.038C123.88 106.231 123.755 106.359 123.568 106.487C121.568 107.384 119.505 108.025 117.318 108.41C114.38 108.986 111.442 109.243 108.442 109.179C103.692 109.179 99.6926 108.41 96.4425 106.935C93.3801 105.589 90.6926 103.474 88.5675 100.845C86.5676 98.3458 85.1301 95.5249 84.2552 92.4479C83.3805 89.435 82.9425 86.2941 82.9425 83.0892C82.9425 79.6276 83.4422 76.2301 84.5048 72.8966C85.505 69.6916 87.0674 66.7427 89.192 64.1144C91.2548 61.5501 93.8168 59.499 96.7544 58.0246C99.692 56.5501 103.192 56.0375 107.192 56.0375C110.505 55.9735 113.817 56.6147 116.88 58.0246C119.442 59.1784 121.692 60.9095 123.442 63.1526C125.067 65.3323 126.38 67.7679 127.192 70.4603C128.005 73.0246 128.38 75.6523 128.38 78.2806C128.38 79.819 128.317 81.1655 128.255 82.3833C128.13 83.6012 128.067 84.499 128.005 85.0756C127.942 85.5243 127.567 85.9089 127.13 85.9089C126.755 85.9089 126.067 85.9729 125.067 86.0369C124.067 86.1649 122.88 86.2295 121.442 86.2295C120.004 86.2295 118.504 85.9729 116.88 85.9729L116.881 85.9741ZM97.0682 76.6153H110.256C111.88 76.6153 113.068 76.6153 113.818 76.5513C114.318 76.4873 114.818 76.3587 115.255 76.0387V75.3975C115.255 74.5642 115.131 73.795 114.88 73.0258C113.755 69.4363 110.443 66.9999 106.755 67.1286C103.318 66.9359 100.068 68.795 98.4428 72.0006C97.6928 73.475 97.2554 75.0135 97.0676 76.6159L97.0682 76.6153Z" fill="#9999FF"/>
</svg>
