<svg width="200" height="144" viewBox="0 0 200 144" fill="none" xmlns="http://www.w3.org/2000/svg">
<path d="M47.741 127.574L129.554 143.229L112.131 110.151C121.48 101.991 137.948 83.5321 149.931 59.3961C151.076 57.0898 152.18 54.7317 153.233 52.3258C155.087 48.0898 156.783 43.7057 158.265 39.1953C158.84 37.4463 159.383 35.6783 159.89 33.8926C161.106 29.6116 162.12 25.2289 162.885 20.7622C128.039 -2.13205 43.7009 0.05637 43.7009 0.05637C43.2509 5.59461 42.9942 10.8956 42.9079 15.9645C42.8633 18.5891 42.8643 21.1516 42.9079 23.6524C43.0267 30.4635 43.461 36.8181 44.1471 42.7305C44.5345 46.0691 45.0022 49.2667 45.5387 52.3258C50.8928 82.8572 63.0968 99.5983 70.7194 105.1L47.741 127.574Z" fill="#3461CC"/>
<path d="M192.176 59.3961C214.598 21.4186 184.119 27.6641 159.89 33.8926C159.383 35.6783 158.84 37.4463 158.265 39.1953C179.248 37.0069 203.69 34.7007 183.085 56.1135C162.48 77.5263 158.723 63.6046 153.233 52.3258C152.18 54.7317 151.076 57.0898 149.931 59.3961C158.794 76.3143 169.753 97.3736 192.176 59.3961Z" fill="#3461CC"/>
<path d="M42.9079 15.9645C30.883 5.86407 5.57048 -5.19585 0.52029 31.3675C-4.5299 67.9309 28.4283 60.5745 45.5387 52.3258C45.0022 49.2667 44.5345 46.0691 44.1471 42.7305C33.9818 51.3158 13.4493 61.5677 12.6413 33.8926C11.8332 6.21758 32.4824 15.5346 42.9079 23.6524C42.8643 21.1516 42.8633 18.5891 42.9079 15.9645Z" fill="#3461CC"/>
<path d="M102.5 21L121.5 23C115.333 42 102.9 80.2 102.5 81C102.1 81.8 86 76.3333 78 73.5L100 39L90 42L71 38L102.5 21Z" fill="#67E542"/>
</svg>
