<svg width="150" height="150" viewBox="0 0 150 150" fill="none" xmlns="http://www.w3.org/2000/svg">
<path d="M0 150V0H150V150H0Z" fill="#F7DF1E"/>
<path d="M97.8456 103.962C100.7 108.447 103.802 112.745 110.373 112.745C115.893 112.745 118.788 110.091 118.788 106.42C118.788 102.026 115.793 100.466 109.721 97.9078L106.393 96.535C96.7855 92.5923 90.3959 87.6519 90.3959 77.2164C90.3959 67.5989 98.0065 60.2801 109.899 60.2801C118.367 60.2801 124.452 63.1175 128.841 70.548L118.471 76.961C116.189 73.0182 113.723 71.4659 109.899 71.4659C105.997 71.4659 103.526 73.8483 103.526 76.961C103.526 80.8079 106.001 82.3643 111.714 84.7467L115.043 86.1195C126.366 90.7845 132.751 95.5493 132.751 106.26C132.751 117.801 123.33 124.126 110.683 124.126C98.3118 124.126 91.2869 118.12 87.3764 110.686L97.8456 103.962ZM50.0534 104.289C52.1406 107.904 55.3127 110.686 59.875 110.686C64.2393 110.686 66.7514 109.018 66.7514 102.533V60.2761H80.5V104.576C80.5 118.013 72.4439 124.126 60.6794 124.126C50.0492 124.126 42.3767 117.159 39.25 110.686L50.0534 104.289Z" fill="#000001"/>
</svg>
