<svg width="525" height="516" viewBox="0 0 525 516" fill="none" xmlns="http://www.w3.org/2000/svg">
<path d="M407.271 53.6524C402.916 58.4473 400.601 64.7512 400.819 71.2254C401.036 77.6995 403.769 83.8337 408.437 88.3252C430.094 108.872 447.315 133.634 459.041 161.087C470.766 188.541 476.748 218.104 476.617 247.956C476.722 368.568 380.71 466.833 262.564 466.965H262.299C234.081 466.994 206.146 461.353 180.149 450.379C154.153 439.405 130.626 423.321 110.965 403.081C70.4519 361.823 47.8401 306.256 48.0343 248.433C47.8435 218.578 53.7657 188.999 65.4363 161.519C77.1069 134.038 94.2789 109.237 115.895 88.6425C120.548 84.137 123.262 77.9952 123.46 71.5213C123.658 65.0474 121.324 58.7512 116.955 53.9698C114.825 51.6291 112.246 49.7394 109.373 48.4125C106.499 47.0856 103.389 46.3484 100.225 46.2447C97.0619 46.1409 93.9097 46.6726 90.9553 47.8083C88.001 48.944 85.3043 50.6606 83.025 52.8567C56.7391 78.204 35.8378 108.594 21.5721 142.209C7.30652 175.823 -0.0301004 211.97 0.00145502 248.487C-0.231208 319.263 27.4471 387.278 77.0337 437.78C126.577 488.252 192.344 516.006 262.325 516.006H262.59C407.244 515.873 524.808 395.58 524.649 247.903C524.604 211.39 517.192 175.261 502.859 141.679C488.525 108.097 467.563 77.7514 441.228 52.4596C438.943 50.2643 436.24 48.5501 433.28 47.4186C430.321 46.2872 427.164 45.7615 423.997 45.8727C420.83 45.984 417.718 46.7299 414.845 48.0662C411.972 49.4026 409.397 51.3022 407.271 53.6524Z" fill="#25A8FF"/>
<path d="M359.291 57.3371C375.063 57.3371 387.814 44.4807 387.787 28.6287C387.787 12.8036 374.984 0 359.238 0C343.493 0 330.742 12.8564 330.742 28.7084C330.769 44.5335 343.546 57.3371 359.291 57.3371Z" fill="#0F8DEB"/>
<path d="M142.612 263.755C158.357 263.729 171.108 250.872 171.081 235.047C171.081 219.222 158.278 206.392 142.532 206.418C126.786 206.418 114.036 219.274 114.063 235.1C114.063 250.925 126.84 263.755 142.585 263.729" fill="#009CDE"/>
<path d="M262.852 103.196H262.693C242.59 103.201 222.691 107.236 204.174 115.063C185.657 122.889 168.897 134.348 154.885 148.763C152.683 151.025 150.961 153.709 149.823 156.654C148.685 159.598 148.155 162.743 148.264 165.898C148.373 169.053 149.119 172.153 150.457 175.012C151.795 177.871 153.698 180.43 156.051 182.535C160.883 186.873 167.205 189.176 173.695 188.963C180.186 188.751 186.343 186.039 190.882 181.395C200.172 171.726 211.33 164.047 223.68 158.825C236.029 153.603 249.311 150.946 262.719 151.016H262.825C317.061 151.016 361.223 193.827 361.276 246.445C361.276 271.973 351.07 295.962 332.514 314.041C313.864 332.118 288.878 342.176 262.905 342.06H262.825C249.427 342.149 236.15 339.514 223.801 334.314C211.452 329.115 200.288 321.46 190.988 311.814C186.447 307.181 180.293 304.479 173.809 304.272C167.325 304.064 161.011 306.367 156.183 310.701C153.828 312.808 151.924 315.369 150.586 318.232C149.248 321.094 148.503 324.198 148.396 327.356C148.29 330.514 148.824 333.661 149.966 336.607C151.108 339.553 152.835 342.238 155.043 344.498C169.067 358.878 185.83 370.302 204.342 378.096C222.854 385.891 242.739 389.898 262.825 389.881H262.958C301.932 390.049 339.423 374.948 367.399 347.812C381.064 334.7 391.933 318.956 399.35 301.53C406.766 284.104 410.578 265.357 410.554 246.419C410.501 167.425 344.231 103.196 262.825 103.196" fill="#009CDE"/>
</svg>
