<svg width="150" height="150" viewBox="0 0 150 150" fill="none" xmlns="http://www.w3.org/2000/svg">
<path d="M74.4588 0C36.3798 0 38.7574 16.5998 38.7574 16.5998L38.7997 33.7977H75.1378V38.9609H24.3668C24.3668 38.9609 0 36.183 0 74.8056C0 113.429 21.2679 112.06 21.2679 112.06H33.9605V94.1367C33.9605 94.1367 33.2763 72.7574 54.8889 72.7574H90.9298C90.9298 72.7574 111.179 73.0863 111.179 53.085V20.0142C111.179 20.0142 114.254 0 74.4588 0ZM54.422 11.5652C55.2807 11.5645 56.1311 11.7339 56.9246 12.0639C57.7181 12.3938 58.439 12.8779 59.0462 13.4882C59.6534 14.0986 60.1349 14.8233 60.4631 15.621C60.7914 16.4186 60.96 17.2735 60.9592 18.1367C60.96 18.9998 60.7914 19.8547 60.4631 20.6523C60.1349 21.45 59.6534 22.1747 59.0462 22.7851C58.439 23.3954 57.7181 23.8795 56.9246 24.2094C56.1311 24.5394 55.2807 24.7089 54.422 24.7081C53.5633 24.7089 52.7129 24.5394 51.9194 24.2094C51.1259 23.8795 50.405 23.3954 49.7978 22.7851C49.1906 22.1747 48.7091 21.45 48.3808 20.6523C48.0526 19.8547 47.884 18.9998 47.8848 18.1367C47.884 17.2735 48.0526 16.4186 48.3808 15.621C48.7091 14.8233 49.1906 14.0986 49.7978 13.4882C50.405 12.8779 51.1259 12.3938 51.9194 12.0639C52.7129 11.7339 53.5633 11.5645 54.422 11.5652Z" fill="url(#paint0_linear_206_420)"/>
<path d="M75.5412 150C113.62 150 111.243 133.4 111.243 133.4L111.2 116.203H74.8616V111.04H125.633C125.633 111.04 149.999 113.818 149.999 75.194C149.999 36.5708 128.731 37.9406 128.731 37.9406H116.039V55.8629C116.039 55.8629 116.723 77.2422 95.1105 77.2422H59.0696C59.0696 77.2422 38.8207 76.9133 38.8207 96.9151V129.987C38.8207 129.987 35.7459 150 75.5406 150H75.5412ZM95.578 138.436C94.7193 138.437 93.8689 138.267 93.0754 137.937C92.2819 137.607 91.561 137.123 90.9538 136.513C90.3466 135.903 89.8651 135.178 89.5368 134.38C89.2086 133.583 89.04 132.728 89.0408 131.865C89.0399 131.001 89.2085 130.146 89.5367 129.349C89.8649 128.551 90.3464 127.826 90.9536 127.216C91.5608 126.605 92.2817 126.121 93.0753 125.791C93.8688 125.461 94.7192 125.292 95.578 125.293C96.4367 125.292 97.2871 125.461 98.0806 125.791C98.8741 126.121 99.595 126.605 100.202 127.216C100.809 127.826 101.291 128.551 101.619 129.348C101.947 130.146 102.116 131.001 102.115 131.864C102.116 132.727 101.947 133.582 101.619 134.38C101.291 135.177 100.809 135.902 100.202 136.513C99.595 137.123 98.8741 137.607 98.0806 137.937C97.2871 138.267 96.4367 138.437 95.578 138.436Z" fill="url(#paint1_linear_206_420)"/>
<defs>
<linearGradient id="paint0_linear_206_420" x1="1441.48" y1="1349.16" x2="8913.37" y2="8707.98" gradientUnits="userSpaceOnUse">
<stop stop-color="#387EB8"/>
<stop offset="1" stop-color="#366994"/>
</linearGradient>
<linearGradient id="paint1_linear_206_420" x1="2166.44" y1="2344.13" x2="10188.5" y2="9888.1" gradientUnits="userSpaceOnUse">
<stop stop-color="#FFE052"/>
<stop offset="1" stop-color="#FFC331"/>
</linearGradient>
</defs>
</svg>
